<svg xmlns="http://www.w3.org/2000/svg" width="44.59" height="44.59" viewBox="0 0 44.59 44.59">
  <path id="Icon_ionic-ios-appstore" data-name="Icon ionic-ios-appstore" d="M25.67,3.375A22.295,22.295,0,1,0,47.965,25.67,22.292,22.292,0,0,0,25.67,3.375ZM17.213,35.2a1.541,1.541,0,0,1-1.34.761,1.487,1.487,0,0,1-.782-.214,1.542,1.542,0,0,1-.557-2.112l1.522-2.53a.868.868,0,0,1,.75-.429h.225a2.184,2.184,0,0,1,2.1,1.308ZM30.1,30.225l-9.968.011H13.5a1.539,1.539,0,0,1-1.543-1.608,1.57,1.57,0,0,1,1.6-1.468h4.8l5.692-9.69h0L22.208,14.33a1.566,1.566,0,0,1,.472-2.112,1.549,1.549,0,0,1,2.176.514l.986,1.683h.011l.986-1.683a1.546,1.546,0,1,1,2.648,1.6L27.642,17.47l-1.79,3.055L21.961,27.16v.011H27.7a2.442,2.442,0,0,1,1.983,1.008l.032.064a2.692,2.692,0,0,1,.5,1.468A1.368,1.368,0,0,1,30.1,30.225Zm7.739.011h-2.7v.011L37.107,33.6a1.574,1.574,0,0,1-.514,2.144,1.545,1.545,0,0,1-.8.225,1.564,1.564,0,0,1-1.34-.761l-2.915-4.963L29.722,27.16l-2.337-4a3.815,3.815,0,0,1-.064-3.784,2.916,2.916,0,0,1,.815-1.029l5.2,8.8H37.8a1.586,1.586,0,0,1,1.6,1.468A1.559,1.559,0,0,1,37.836,30.236Z" transform="translate(-3.375 -3.375)"/>
</svg>
