<svg xmlns="http://www.w3.org/2000/svg" width="42.241" height="29.507" viewBox="0 0 42.241 29.507">
  <path id="Icon_metro-books" data-name="Icon metro-books" d="M11.178,8.571H3.8A1.233,1.233,0,0,0,2.571,9.8V36.849A1.233,1.233,0,0,0,3.8,38.078h7.377a1.233,1.233,0,0,0,1.229-1.229V9.8A1.233,1.233,0,0,0,11.178,8.571ZM9.948,15.948H5.03V13.489H9.948ZM23.472,8.571H16.1A1.233,1.233,0,0,0,14.866,9.8V36.849A1.233,1.233,0,0,0,16.1,38.078h7.377A1.233,1.233,0,0,0,24.7,36.849V9.8A1.233,1.233,0,0,0,23.472,8.571Zm-1.229,7.377H17.325V13.489h4.918Zm9.724-5.476-6.588,3.319a1.233,1.233,0,0,0-.545,1.651L35.9,37.4a1.233,1.233,0,0,0,1.651.545l6.588-3.319a1.233,1.233,0,0,0,.545-1.651L33.618,11.017a1.233,1.233,0,0,0-1.651-.545Zm6.259,26.376A1.229,1.229,0,1,1,37,35.619,1.229,1.229,0,0,1,38.226,36.849Z" transform="translate(-2.571 -8.571)"/>
</svg>
