<svg xmlns="http://www.w3.org/2000/svg" width="41.555" height="41.545" viewBox="0 0 41.555 41.545">
  <path id="Icon_ionic-ios-globe" data-name="Icon ionic-ios-globe" d="M24.147,3.375h-.07a20.773,20.773,0,0,0,.01,41.545h.07a20.772,20.772,0,1,0-.01-41.545Zm18,19.374h-7.75a39.328,39.328,0,0,0-.979-7.61,30.424,30.424,0,0,0,4.963-2.1A17.892,17.892,0,0,1,42.144,22.749Zm-19.394,0H16.577a35.5,35.5,0,0,1,.879-6.9,30.384,30.384,0,0,0,5.293.709Zm0,2.8v6.182a30.512,30.512,0,0,0-5.293.709,35.493,35.493,0,0,1-.879-6.891Zm2.8,0h6.122a35.289,35.289,0,0,1-.879,6.881,29.81,29.81,0,0,0-5.243-.7Zm0-2.8V16.558a30.513,30.513,0,0,0,5.243-.7,35.393,35.393,0,0,1,.879,6.891ZM36.471,10.975a27.744,27.744,0,0,1-3.795,1.548A20.62,20.62,0,0,0,30.03,7.08,18.072,18.072,0,0,1,36.471,10.975ZM30.04,13.242a28.106,28.106,0,0,1-4.494.6V6.511C27.243,7.43,28.9,9.9,30.04,13.242Zm-7.29-6.771v7.36a27.621,27.621,0,0,1-4.544-.609C19.364,9.846,21.042,7.38,22.749,6.471ZM18.2,7.11a20.783,20.783,0,0,0-2.627,5.4,28.368,28.368,0,0,1-3.745-1.538A17.8,17.8,0,0,1,18.2,7.11ZM9.916,13.052a29.821,29.821,0,0,0,4.913,2.077,37.743,37.743,0,0,0-.979,7.61H6.161A17.8,17.8,0,0,1,9.916,13.052ZM6.151,25.546h7.69a39.227,39.227,0,0,0,.979,7.61,31.64,31.64,0,0,0-4.913,2.077A17.9,17.9,0,0,1,6.151,25.546ZM11.814,37.32a27.949,27.949,0,0,1,3.755-1.538A20.857,20.857,0,0,0,18.2,41.195,18.244,18.244,0,0,1,11.814,37.32Zm6.392-2.257a27.766,27.766,0,0,1,4.544-.609v7.37C21.032,40.915,19.364,38.439,18.205,35.063Zm7.34,6.721v-7.34a28.106,28.106,0,0,1,4.494.6C28.9,38.4,27.243,40.865,25.546,41.784Zm4.494-.569a20.62,20.62,0,0,0,2.646-5.443,27.287,27.287,0,0,1,3.795,1.558A18.279,18.279,0,0,1,30.04,41.215Zm8.339-5.972a30.423,30.423,0,0,0-4.963-2.1,39.123,39.123,0,0,0,.979-7.6h7.75A17.814,17.814,0,0,1,38.379,35.243Z" transform="translate(-3.375 -3.375)"/>
</svg>
