<svg xmlns="http://www.w3.org/2000/svg" width="31.28" height="44.686" viewBox="0 0 31.28 44.686">
  <path id="Icon_material-lightbulb-outline" data-name="Icon material-lightbulb-outline" d="M16.437,45.452a2.241,2.241,0,0,0,2.234,2.234h8.937a2.241,2.241,0,0,0,2.234-2.234V43.217H16.437ZM23.14,3A15.633,15.633,0,0,0,14.2,31.465v5.05a2.241,2.241,0,0,0,2.234,2.234H29.843a2.241,2.241,0,0,0,2.234-2.234v-5.05A15.633,15.633,0,0,0,23.14,3Zm6.368,24.8-1.9,1.341V34.28H18.672V29.141l-1.9-1.341a11.172,11.172,0,1,1,12.736,0Z" transform="translate(-7.5 -3)"/>
</svg>
