<svg xmlns="http://www.w3.org/2000/svg" xmlns:xlink="http://www.w3.org/1999/xlink" width="40.241" height="48.246" viewBox="0 0 40.241 48.246">
  <defs>
    <clipPath id="clip-path">
      <rect width="29" height="32" fill="none"/>
    </clipPath>
  </defs>
  <g id="Group_18" data-name="Group 18" transform="translate(0)">
    <path id="Icon_simple-microsoftonenote" data-name="Icon simple-microsoftonenote" d="M45.289,23.958v8.666a1.231,1.231,0,0,1-1.219,1.228H42.192V22.727h1.877a1.177,1.177,0,0,1,.86.359A1.2,1.2,0,0,1,45.289,23.958ZM44.067,35.134a1.226,1.226,0,0,1,1.219,1.22v8.7a1.214,1.214,0,0,1-1.219,1.22H42.19V35.13h1.877Zm0-24.819a1.41,1.41,0,0,1,.925.362,1.118,1.118,0,0,1,.424.868v8.668a1.1,1.1,0,0,1-.424.88,1.488,1.488,0,0,1-.925.326H40.961V48.154a1.008,1.008,0,0,1-.378.8,1.471,1.471,0,0,1-.877.289H23.553V43.779H36.1V41.172H23.553V38.1H36.1V35.639H23.553V32.491H36.1V30.067H23.553V26.994H36.1V24.568H23.553V21.42H36.1V18.96H23.553V15.885H36.1V13.316H23.553V7.207H40.147a3.588,3.588,0,0,1,.817,1.155v1.956h3.1ZM20.469,1l0,0,0,0Z" transform="translate(-5.175 -0.996)"/>
    <rect id="Rectangle_63" data-name="Rectangle 63" width="30" height="38" transform="translate(2 9.242)"/>
    <path id="Subtraction_2" data-name="Subtraction 2" d="M31.329,42.071H4.822A4.757,4.757,0,0,1,0,37.393V4.677A4.756,4.756,0,0,1,4.822,0H19.359V42.064H31.551l-.071,0ZM9.938,17.524h0l6.325,3.5V3.5H3.614V21.029l6.323-3.5Z" transform="translate(0 6.175)"/>
    <g id="Repeat_Grid_12" data-name="Repeat Grid 12" transform="translate(2 10.242)" clip-path="url(#clip-path)">
      <g transform="translate(-449 -68)">
        <rect id="Rectangle_62" data-name="Rectangle 62" width="18" height="2" transform="translate(451 68)" fill="#fff"/>
      </g>
      <g transform="translate(-449 -64)">
        <rect id="Rectangle_62-2" data-name="Rectangle 62" width="18" height="2" transform="translate(451 68)" fill="#fff"/>
      </g>
      <g transform="translate(-449 -60)">
        <rect id="Rectangle_62-3" data-name="Rectangle 62" width="18" height="2" transform="translate(451 68)" fill="#fff"/>
      </g>
      <g transform="translate(-449 -56)">
        <rect id="Rectangle_62-4" data-name="Rectangle 62" width="18" height="2" transform="translate(451 68)" fill="#fff"/>
      </g>
      <g transform="translate(-449 -52)">
        <rect id="Rectangle_62-5" data-name="Rectangle 62" width="18" height="2" transform="translate(451 68)" fill="#fff"/>
      </g>
      <g transform="translate(-449 -48)">
        <rect id="Rectangle_62-6" data-name="Rectangle 62" width="18" height="2" transform="translate(451 68)" fill="#fff"/>
      </g>
      <g transform="translate(-449 -44)">
        <rect id="Rectangle_62-7" data-name="Rectangle 62" width="18" height="2" transform="translate(451 68)" fill="#fff"/>
      </g>
      <g transform="translate(-449 -40)">
        <rect id="Rectangle_62-8" data-name="Rectangle 62" width="18" height="2" transform="translate(451 68)" fill="#fff"/>
      </g>
    </g>
  </g>
</svg>
