<svg xmlns="http://www.w3.org/2000/svg" width="30" height="33.5" viewBox="0 0 30 33.5">
  <g id="Gruppe_340" data-name="Gruppe 340" transform="translate(-236.037 -64.5)">
    <text id="_" data-name="!" transform="translate(248 93)" font-size="18" font-family="SegoeUI-Bold, Segoe UI" font-weight="700"><tspan x="0" y="0">!</tspan></text>
    <g id="Icon_feather-calendar" data-name="Icon feather-calendar" transform="translate(237.537 66)">
      <path id="Pfad_15" data-name="Pfad 15" d="M7.5,6h21a3,3,0,0,1,3,3V30a3,3,0,0,1-3,3H7.5a3,3,0,0,1-3-3V9a3,3,0,0,1,3-3Z" transform="translate(-4.5 -3)" fill="none" stroke="#000" stroke-linecap="round" stroke-linejoin="round" stroke-width="3"/>
      <path id="Pfad_16" data-name="Pfad 16" d="M24,3V9" transform="translate(-4.5 -3)" fill="none" stroke="#000" stroke-linecap="round" stroke-linejoin="round" stroke-width="3"/>
      <path id="Pfad_17" data-name="Pfad 17" d="M12,3V9" transform="translate(-4.5 -3)" fill="none" stroke="#000" stroke-linecap="round" stroke-linejoin="round" stroke-width="3"/>
      <path id="Pfad_18" data-name="Pfad 18" d="M4.5,15h27" transform="translate(-4.5 -3)" fill="none" stroke="#000" stroke-linecap="round" stroke-linejoin="round" stroke-width="3"/>
    </g>
  </g>
</svg>
