<svg id="Group_18" data-name="Group 18" xmlns="http://www.w3.org/2000/svg" xmlns:xlink="http://www.w3.org/1999/xlink" width="28.932" height="34.687" viewBox="0 0 28.932 34.687">
  <defs>
    <clipPath id="clip-path">
      <rect width="20" height="23" fill="none"/>
    </clipPath>
  </defs>
  <path id="Icon_simple-microsoftonenote" data-name="Icon simple-microsoftonenote" d="M38.313,17.5v6.231a.885.885,0,0,1-.877.883H36.087v-8h1.349a.846.846,0,0,1,.618.258A.861.861,0,0,1,38.313,17.5Zm-.878,8.036a.882.882,0,0,1,.877.877v6.255a.873.873,0,0,1-.877.877H36.086V25.537h1.349Zm0-17.844a1.014,1.014,0,0,1,.665.26.8.8,0,0,1,.3.624v6.232a.791.791,0,0,1-.3.633,1.07,1.07,0,0,1-.665.234H35.2V34.9a.725.725,0,0,1-.272.574,1.058,1.058,0,0,1-.631.208H22.686V31.755h9.02V29.881h-9.02V27.673h9.02V25.9h-9.02V23.64h9.02V21.9h-9.02V19.688h9.02V17.943h-9.02V15.68h9.02V13.911h-9.02V11.7h9.02V9.854h-9.02V5.461h11.93a2.58,2.58,0,0,1,.587.831V7.7h2.231ZM20.469,1l0,0,0,0Z" transform="translate(-9.473 -0.996)"/>
  <rect id="Rectangle_63" data-name="Rectangle 63" width="21" height="27" transform="translate(2.039 6.682)"/>
  <path id="Subtraction_2" data-name="Subtraction 2" d="M22.524,30.247H3.467A3.42,3.42,0,0,1,0,26.884V3.362A3.42,3.42,0,0,1,3.467,0H13.918V30.243h8.765l-.051,0ZM7.145,12.6h0l4.547,2.52V2.519H2.6v12.6L7.145,12.6Z" transform="translate(0 4.44)"/>
  <g id="Repeat_Grid_12" data-name="Repeat Grid 12" transform="translate(2.039 7.682)" clip-path="url(#clip-path)">
    <g transform="translate(-449 -68)">
      <rect id="Rectangle_62" data-name="Rectangle 62" width="18" height="2" transform="translate(451 68)" fill="#fff"/>
    </g>
    <g transform="translate(-449 -64)">
      <rect id="Rectangle_62-2" data-name="Rectangle 62" width="18" height="2" transform="translate(451 68)" fill="#fff"/>
    </g>
    <g transform="translate(-449 -60)">
      <rect id="Rectangle_62-3" data-name="Rectangle 62" width="18" height="2" transform="translate(451 68)" fill="#fff"/>
    </g>
    <g transform="translate(-449 -56)">
      <rect id="Rectangle_62-4" data-name="Rectangle 62" width="18" height="2" transform="translate(451 68)" fill="#fff"/>
    </g>
    <g transform="translate(-449 -52)">
      <rect id="Rectangle_62-5" data-name="Rectangle 62" width="18" height="2" transform="translate(451 68)" fill="#fff"/>
    </g>
    <g transform="translate(-449 -48)">
      <rect id="Rectangle_62-6" data-name="Rectangle 62" width="18" height="2" transform="translate(451 68)" fill="#fff"/>
    </g>
  </g>
</svg>
