<svg id="biological_drak" xmlns="http://www.w3.org/2000/svg" width="40.525" height="41.305" viewBox="0 0 40.525 41.305">
  <path id="Pfad_83" data-name="Pfad 83" d="M404.13,290.065V288H400v11.7a2.065,2.065,0,0,0,4.13,0v-2.754h-2.065v-1.377h2.065V294.2h-2.065v-1.377h2.065v-1.377h-2.065v-1.377Zm0,0" transform="translate(-365.579 -263.217)"/>
  <path id="Pfad_84" data-name="Pfad 84" d="M384,256h6.884v1.377H384Zm0,0" transform="translate(-350.956 -233.971)"/>
  <path id="Pfad_85" data-name="Pfad 85" d="M276.13,290.065V288H272v11.7a2.065,2.065,0,0,0,4.13,0v-2.754h-2.065v-1.377h2.065V294.2h-2.065v-1.377h2.065v-1.377h-2.065v-1.377Zm0,0" transform="translate(-248.594 -263.217)"/>
  <path id="Pfad_86" data-name="Pfad 86" d="M64,225.377h9.638V224H64Zm0,0" transform="translate(-58.493 -204.724)"/>
  <path id="Pfad_87" data-name="Pfad 87" d="M33.9,267.334a2.321,2.321,0,0,0-1.121-1.979L28.8,262.97a3.7,3.7,0,0,1-1.789-3.159V256h-4.13v3.811a3.7,3.7,0,0,1-1.789,3.16l-3.974,2.385a2.3,2.3,0,0,0-1.051,2.539l1.845,7.381h14.07l1.845-7.382a2.331,2.331,0,0,0,.069-.56Zm-6.554-2.028a6.393,6.393,0,0,1-1.543-1.321l1.05-.891a5.007,5.007,0,0,0,1.211,1.037ZM32.5,267.5l-1.464,5.876-1.336-.333,1.37-5.5-2.191-1.315.709-1.181,2.48,1.488a.934.934,0,0,1,.452.8Zm0,0" transform="translate(-14.623 -233.971)"/>
  <path id="Pfad_88" data-name="Pfad 88" d="M239.475,432h-.15a3.442,3.442,0,0,1-6.745,0h-4.27a3.442,3.442,0,0,1-6.745,0h-2.286l-1.033,4.13h21.744Zm0,0" transform="translate(-199.466 -394.826)"/>
  <path id="Pfad_89" data-name="Pfad 89" d="M256,256h6.884v1.377H256Zm0,0" transform="translate(-233.971 -233.971)"/>
  <path id="Pfad_90" data-name="Pfad 90" d="M378.065,100.13A2.065,2.065,0,1,0,376,98.065,2.068,2.068,0,0,0,378.065,100.13Zm-.688-2.754h1.377v1.377h-1.377Zm0,0" transform="translate(-343.645 -87.739)"/>
  <path id="Pfad_91" data-name="Pfad 91" d="M313.377,144.688a.688.688,0,1,1-.688-.688A.688.688,0,0,1,313.377,144.688Zm0,0" transform="translate(-285.152 -131.609)"/>
  <path id="Pfad_92" data-name="Pfad 92" d="M321.377,56.688a.688.688,0,1,1-.688-.688A.688.688,0,0,1,321.377,56.688Zm0,0" transform="translate(-292.464 -51.181)"/>
  <path id="Pfad_93" data-name="Pfad 93" d="M272.261,32.522A8.261,8.261,0,1,0,264,24.261,8.27,8.27,0,0,0,272.261,32.522ZM275.7,21.507a3.442,3.442,0,1,1-3.442,3.442A3.446,3.446,0,0,1,275.7,21.507Zm-6.2-3.442a2.065,2.065,0,1,1-2.065,2.065A2.068,2.068,0,0,1,269.507,18.065Zm-.688,7.573a2.065,2.065,0,1,1-2.065,2.065A2.068,2.068,0,0,1,268.819,25.638Zm0,0" transform="translate(-241.282 -14.623)"/>
  <path id="Pfad_94" data-name="Pfad 94" d="M6.2,15.833H9.638v2.754h1.377V6.884h3.442a6.2,6.2,0,0,0,6.2-6.2V0H15.833a6.2,6.2,0,0,0-5.507,3.37A6.2,6.2,0,0,0,4.819,0H0V.688a6.2,6.2,0,0,0,6.2,6.2H9.638V11.26a6.183,6.183,0,0,0-4.819-2.31H0v.688A6.2,6.2,0,0,0,6.2,15.833ZM11.015,6.2V4.55a8.933,8.933,0,0,1,6.2-2.484V3.442a7.571,7.571,0,0,0-5.389,2.233l-.807.806ZM8.831,5.675A7.571,7.571,0,0,0,3.442,3.442V2.065a8.933,8.933,0,0,1,6.2,2.484V6.481Zm-5.389,5.34a8.933,8.933,0,0,1,6.2,2.484V15.43l-.807-.807a7.573,7.573,0,0,0-5.389-2.232Zm0,0"/>
</svg>
