<svg xmlns="http://www.w3.org/2000/svg" width="21.438" height="24.5" viewBox="0 0 21.438 24.5">
  <path id="Icon_awesome-calendar-alt" data-name="Icon awesome-calendar-alt" d="M0,22.2a2.3,2.3,0,0,0,2.3,2.3H19.141a2.3,2.3,0,0,0,2.3-2.3V9.188H0Zm15.313-9.379a.576.576,0,0,1,.574-.574H17.8a.576.576,0,0,1,.574.574v1.914a.576.576,0,0,1-.574.574H15.887a.576.576,0,0,1-.574-.574Zm0,6.125a.576.576,0,0,1,.574-.574H17.8a.576.576,0,0,1,.574.574v1.914a.576.576,0,0,1-.574.574H15.887a.576.576,0,0,1-.574-.574ZM9.188,12.824a.576.576,0,0,1,.574-.574h1.914a.576.576,0,0,1,.574.574v1.914a.576.576,0,0,1-.574.574H9.762a.576.576,0,0,1-.574-.574Zm0,6.125a.576.576,0,0,1,.574-.574h1.914a.576.576,0,0,1,.574.574v1.914a.576.576,0,0,1-.574.574H9.762a.576.576,0,0,1-.574-.574ZM3.063,12.824a.576.576,0,0,1,.574-.574H5.551a.576.576,0,0,1,.574.574v1.914a.576.576,0,0,1-.574.574H3.637a.576.576,0,0,1-.574-.574Zm0,6.125a.576.576,0,0,1,.574-.574H5.551a.576.576,0,0,1,.574.574v1.914a.576.576,0,0,1-.574.574H3.637a.576.576,0,0,1-.574-.574ZM19.141,3.063h-2.3V.766A.768.768,0,0,0,16.078,0H14.547a.768.768,0,0,0-.766.766v2.3H7.656V.766A.768.768,0,0,0,6.891,0H5.359a.768.768,0,0,0-.766.766v2.3H2.3A2.3,2.3,0,0,0,0,5.359v2.3H21.438v-2.3A2.3,2.3,0,0,0,19.141,3.063Z"/>
</svg>
