<svg xmlns="http://www.w3.org/2000/svg" width="40.295" height="40.294" viewBox="0 0 40.295 40.294">
  <g id="chemistry" transform="translate(-4.744 -4.739)">
    <path id="Pfad_103" data-name="Pfad 103" d="M20.486,35.689v-9.8a1.612,1.612,0,0,0-.07-3.223H11.269a1.612,1.612,0,0,0-.07,3.223v9.8a11.1,11.1,0,1,0,9.286,0ZM10.845,24.28a.425.425,0,0,1,.425-.425h9.147a.425.425,0,0,1,0,.85H11.27a.425.425,0,0,1-.425-.425Zm5,31.4a9.908,9.908,0,0,1-3.817-19.05.6.6,0,0,0,.366-.549V25.9H19.3V36.077a.6.6,0,0,0,.366.549,9.908,9.908,0,0,1-3.82,19.05Z" transform="translate(0 -11.831)"/>
    <path id="Pfad_104" data-name="Pfad 104" d="M19.693,89.942a26.2,26.2,0,0,0-8.38-1.079.6.6,0,0,0-.564.595,9.055,9.055,0,1,0,18.11.105A.6.6,0,0,0,28.04,89,13.351,13.351,0,0,1,19.693,89.942Zm7.914.5a7.865,7.865,0,0,1-15.647-.41,25.671,25.671,0,0,1,7.413,1.057A13.95,13.95,0,0,0,27.608,90.441Z" transform="translate(-3.964 -55.51)"/>
    <path id="Pfad_105" data-name="Pfad 105" d="M25.594,76.206a1.615,1.615,0,1,0-1.615-1.615A1.615,1.615,0,0,0,25.594,76.206Zm0-2.04a.425.425,0,1,1-.425.425A.425.425,0,0,1,25.594,74.166Z" transform="translate(-12.695 -45.035)"/>
    <path id="Pfad_106" data-name="Pfad 106" d="M35.856,63.58a1.615,1.615,0,1,0,1.615-1.615A1.615,1.615,0,0,0,35.856,63.58Zm2.04,0a.425.425,0,1,1-.425-.425A.425.425,0,0,1,37.9,63.58Z" transform="translate(-20.533 -37.768)"/>
    <path id="Pfad_107" data-name="Pfad 107" d="M33.443,44.113A1.615,1.615,0,1,0,31.828,42.5,1.615,1.615,0,0,0,33.443,44.113Zm0-2.04a.425.425,0,1,1-.425.425A.425.425,0,0,1,33.443,42.073Z" transform="translate(-17.875 -23.854)"/>
    <path id="Pfad_108" data-name="Pfad 108" d="M78.708,14.013a2.637,2.637,0,0,0-2.633,2.6l-3.419.743a3.573,3.573,0,0,0-1.466-1.734l2.268-5.64a2.635,2.635,0,1,0-1.1-.444l-2.267,5.638a3.568,3.568,0,0,0-3.246.907L64.8,14.539a2.638,2.638,0,1,0-.717.95l2.036,1.535a3.573,3.573,0,0,0-.165,2.942l-1.394.818a2.61,2.61,0,1,0,.605,1.024l1.39-.816a3.566,3.566,0,0,0,3.638,1.186l1.416,3.237a2.63,2.63,0,1,0,1.572-.527,2.659,2.659,0,0,0-.486.047L71.283,21.7a3.607,3.607,0,0,0,1.634-3.017c0-.058-.006-.115-.009-.172l3.42-.743a2.634,2.634,0,1,0,2.38-3.759Zm-4.845-8.08a1.445,1.445,0,1,1-1.445,1.445A1.445,1.445,0,0,1,73.862,5.933ZM62.648,24.039a1.445,1.445,0,1,1,1.445-1.445,1.445,1.445,0,0,1-1.445,1.445Zm11.979,3.486a1.445,1.445,0,1,1-1.445-1.445A1.445,1.445,0,0,1,74.627,27.525ZM62.393,14.915a1.445,1.445,0,1,1,1.445-1.445A1.445,1.445,0,0,1,62.393,14.915ZM70.281,20.9a2.389,2.389,0,0,1-.967.2A2.414,2.414,0,0,1,66.9,18.686a2.386,2.386,0,0,1,.486-1.451,2.421,2.421,0,0,1,1.924-.958,2.348,2.348,0,0,1,.9.175A2.411,2.411,0,0,1,70.28,20.9Zm8.426-2.806a1.446,1.446,0,0,1-1.411-1.14s0-.009,0-.014a1.466,1.466,0,0,1-.029-.291,1.445,1.445,0,1,1,1.445,1.445Z" transform="translate(-36.304)"/>
  </g>
</svg>
