<svg xmlns="http://www.w3.org/2000/svg" width="38.045" height="35.398" viewBox="0 0 38.045 35.398">
  <g id="poetry" transform="translate(-2.63)">
    <path id="Path_142" data-name="Path 142" d="M32.446,17l7.006-9.273A5.963,5.963,0,0,0,40.666,4.46a5.881,5.881,0,0,0-.844-3.365A2.343,2.343,0,0,0,37.806,0h-1.2a10.1,10.1,0,0,0-5.262,1.456A4.733,4.733,0,0,0,27.906,0H7.171A4.377,4.377,0,0,0,2.63,4.181a.729.729,0,0,0,.757.7H10.2v26.34A4.377,4.377,0,0,0,14.738,35.4H35.473a4.377,4.377,0,0,0,4.541-4.181.729.729,0,0,0-.757-.7H32.446V26.26a.759.759,0,0,0-1.514,0v4.261H18.522a.729.729,0,0,0-.757.7A2.918,2.918,0,0,1,14.738,34a2.918,2.918,0,0,1-3.027-2.787V4.181a3.985,3.985,0,0,0-1.159-2.787H27.906a3.163,3.163,0,0,1,2.249.922q-1.621,1.3-3.143,2.7H15.344a.729.729,0,0,0-.757.7.729.729,0,0,0,.757.7H25.553Q24.185,7.764,22.916,9.2H15.344a.7.7,0,1,0,0,1.394h6.391a9.276,9.276,0,0,0-1.469,2.787H15.344a.7.7,0,1,0,0,1.394h4.592a18.005,18.005,0,0,0-.15,3.57A50.207,50.207,0,0,0,14.009,31.75c-.24.9,1.23,1.234,1.47.331q.18-.676.378-1.344a3.55,3.55,0,0,1,3.411-2.331.756.756,0,0,0,.713-.463,46.861,46.861,0,0,1,3.409-7.006l3.236-.442a8.658,8.658,0,0,0,4.306-1.858v1.352a.759.759,0,0,0,1.514,0V17ZM19.216,31.914H38.4A3,3,0,0,1,35.473,34H18.12A4.045,4.045,0,0,0,19.216,31.914ZM4.239,3.484a3,3,0,0,1,2.931-2.09A3,3,0,0,1,10.1,3.484ZM18.726,27.039a5.382,5.382,0,0,0-1.8.5,49.016,49.016,0,0,1,2.767-6.1l1.835-.251A48.177,48.177,0,0,0,18.726,27.039ZM26.4,19.116l-5.854.8A52.641,52.641,0,0,1,33.775,4.965c.763-.593-.213-1.658-.976-1.065a54.743,54.743,0,0,0-11.48,12.092q.034-.4.088-.829a7.841,7.841,0,0,1,1.8-4.063,56.629,56.629,0,0,1,8.213-7.95A8.387,8.387,0,0,1,36.61,1.394h1.2a.8.8,0,0,1,.692.376,4.542,4.542,0,0,1-.288,5.163l-3.392,4.49a6.911,6.911,0,0,1-4.57,2.606l-2.181.3a.7.7,0,1,0,.11,1.386c.037,0,2.293-.305,2.293-.305a8.831,8.831,0,0,0,1.625-.381L30.979,16.5A6.91,6.91,0,0,1,26.4,19.116Zm6.042,4.008a.759.759,0,1,1-.757-.7A.729.729,0,0,1,32.446,23.124Z"/>
  </g>
</svg>
