<svg xmlns="http://www.w3.org/2000/svg" xmlns:xlink="http://www.w3.org/1999/xlink" width="122.003" height="158.002" viewBox="0 0 122.003 158.002">
  <defs>
    <clipPath id="clip-path">
      <rect width="42" height="39" fill="none"/>
    </clipPath>
    <clipPath id="clip-path-2">
      <rect width="90" height="87" fill="none"/>
    </clipPath>
  </defs>
  <g id="Group_74" data-name="Group 74" transform="translate(-105.998 -112.998)">
    <path id="Subtraction_1" data-name="Subtraction 1" d="M121,157v0H0V0H96.764L121,23.447V157Z" transform="translate(106.498 113.498)" fill="#fff" stroke="#000" stroke-width="1"/>
    <rect id="Rectangle_69" data-name="Rectangle 69" width="42" height="39" transform="translate(119 127)"/>
    <g id="Repeat_Grid_14" data-name="Repeat Grid 14" transform="translate(167 127)" clip-path="url(#clip-path)">
      <g transform="translate(-167 -127)">
        <rect id="Rectangle_70" data-name="Rectangle 70" width="42" height="3" transform="translate(167 127)"/>
      </g>
      <g transform="translate(-167 -120)">
        <rect id="Rectangle_70-2" data-name="Rectangle 70" width="42" height="3" transform="translate(167 127)"/>
      </g>
      <g transform="translate(-167 -113)">
        <rect id="Rectangle_70-3" data-name="Rectangle 70" width="42" height="3" transform="translate(167 127)"/>
      </g>
      <g transform="translate(-167 -106)">
        <rect id="Rectangle_70-4" data-name="Rectangle 70" width="42" height="3" transform="translate(167 127)"/>
      </g>
      <g transform="translate(-167 -99)">
        <rect id="Rectangle_70-5" data-name="Rectangle 70" width="42" height="3" transform="translate(167 127)"/>
      </g>
      <g transform="translate(-167 -92)">
        <rect id="Rectangle_70-6" data-name="Rectangle 70" width="42" height="3" transform="translate(167 127)"/>
      </g>
    </g>
    <g id="Repeat_Grid_15" data-name="Repeat Grid 15" transform="translate(119 174)" clip-path="url(#clip-path-2)">
      <g transform="translate(-167 -127)">
        <rect id="Rectangle_70-7" data-name="Rectangle 70" width="90" height="3" transform="translate(167 127)"/>
      </g>
      <g transform="translate(-105 -127)">
        <rect id="Rectangle_70-8" data-name="Rectangle 70" width="90" height="3" transform="translate(167 127)"/>
      </g>
      <g transform="translate(-167 -119)">
        <rect id="Rectangle_70-9" data-name="Rectangle 70" width="90" height="3" transform="translate(167 127)"/>
      </g>
      <g transform="translate(-105 -119)">
        <rect id="Rectangle_70-10" data-name="Rectangle 70" width="90" height="3" transform="translate(167 127)"/>
      </g>
      <g transform="translate(-167 -111)">
        <rect id="Rectangle_70-11" data-name="Rectangle 70" width="90" height="3" transform="translate(167 127)"/>
      </g>
      <g transform="translate(-105 -111)">
        <rect id="Rectangle_70-12" data-name="Rectangle 70" width="90" height="3" transform="translate(167 127)"/>
      </g>
      <g transform="translate(-167 -103)">
        <rect id="Rectangle_70-13" data-name="Rectangle 70" width="90" height="3" transform="translate(167 127)"/>
      </g>
      <g transform="translate(-105 -103)">
        <rect id="Rectangle_70-14" data-name="Rectangle 70" width="90" height="3" transform="translate(167 127)"/>
      </g>
      <g transform="translate(-167 -95)">
        <rect id="Rectangle_70-15" data-name="Rectangle 70" width="90" height="3" transform="translate(167 127)"/>
      </g>
      <g transform="translate(-105 -95)">
        <rect id="Rectangle_70-16" data-name="Rectangle 70" width="90" height="3" transform="translate(167 127)"/>
      </g>
      <g transform="translate(-167 -87)">
        <rect id="Rectangle_70-17" data-name="Rectangle 70" width="90" height="3" transform="translate(167 127)"/>
      </g>
      <g transform="translate(-105 -87)">
        <rect id="Rectangle_70-18" data-name="Rectangle 70" width="90" height="3" transform="translate(167 127)"/>
      </g>
      <g transform="translate(-167 -79)">
        <rect id="Rectangle_70-19" data-name="Rectangle 70" width="90" height="3" transform="translate(167 127)"/>
      </g>
      <g transform="translate(-105 -79)">
        <rect id="Rectangle_70-20" data-name="Rectangle 70" width="90" height="3" transform="translate(167 127)"/>
      </g>
      <g transform="translate(-167 -71)">
        <rect id="Rectangle_70-21" data-name="Rectangle 70" width="90" height="3" transform="translate(167 127)"/>
      </g>
      <g transform="translate(-105 -71)">
        <rect id="Rectangle_70-22" data-name="Rectangle 70" width="90" height="3" transform="translate(167 127)"/>
      </g>
      <g transform="translate(-167 -63)">
        <rect id="Rectangle_70-23" data-name="Rectangle 70" width="90" height="3" transform="translate(167 127)"/>
      </g>
      <g transform="translate(-105 -63)">
        <rect id="Rectangle_70-24" data-name="Rectangle 70" width="90" height="3" transform="translate(167 127)"/>
      </g>
      <g transform="translate(-167 -55)">
        <rect id="Rectangle_70-25" data-name="Rectangle 70" width="90" height="3" transform="translate(167 127)"/>
      </g>
      <g transform="translate(-105 -55)">
        <rect id="Rectangle_70-26" data-name="Rectangle 70" width="90" height="3" transform="translate(167 127)"/>
      </g>
      <g transform="translate(-167 -47)">
        <rect id="Rectangle_70-27" data-name="Rectangle 70" width="90" height="3" transform="translate(167 127)"/>
      </g>
      <g transform="translate(-105 -47)">
        <rect id="Rectangle_70-28" data-name="Rectangle 70" width="90" height="3" transform="translate(167 127)"/>
      </g>
    </g>
  </g>
</svg>
