<svg xmlns="http://www.w3.org/2000/svg" width="124" height="159" viewBox="0 0 124 159">
  <g id="Gruppe_349" data-name="Gruppe 349" transform="translate(-39 -799)">
    <g id="Gruppe_348" data-name="Gruppe 348">
      <g id="Rechteck_40" data-name="Rechteck 40" transform="translate(39 799)" fill="#fff" stroke="#000" stroke-width="2">
        <path d="M0,0H110a14,14,0,0,1,14,14V145a14,14,0,0,1-14,14H0a0,0,0,0,1,0,0V0A0,0,0,0,1,0,0Z" stroke="none"/>
        <path d="M2,1H110a13,13,0,0,1,13,13V145a13,13,0,0,1-13,13H2a1,1,0,0,1-1-1V2A1,1,0,0,1,2,1Z" fill="none"/>
      </g>
      <path id="Icon_awesome-bookmark" data-name="Icon awesome-bookmark" d="M0,24.819V2.327A2.113,2.113,0,0,1,1.794,0H12.555a2.113,2.113,0,0,1,1.794,2.327V24.819L7.174,19.39Z" transform="translate(127.188 799.59)"/>
    </g>
  </g>
</svg>
