<svg id="united-kingdom_dark" xmlns="http://www.w3.org/2000/svg" width="40.109" height="40.109" viewBox="0 0 40.109 40.109">
  <path id="Path_123" data-name="Path 123" d="M320,84.525v4.582a84.486,84.486,0,0,1,8.065-5.416A51.067,51.067,0,0,0,320,84.525Zm0,0" transform="translate(-294.932 -77.135)"/>
  <path id="Path_124" data-name="Path 124" d="M64.277,121.625c.13-.01.259-.021.389-.033.188-.016.376-.032.564-.05l.372-.039c.192-.02.384-.04.575-.063l.25-.031a48.947,48.947,0,0,1-11.571-7.085v1.006a44.275,44.275,0,0,0,9.326,6.3l.1-.006Zm0,0" transform="translate(-50.558 -105.368)"/>
  <path id="Path_125" data-name="Path 125" d="M435.488,249.2c-.084-.024-.167-.05-.251-.073q-.23-.063-.461-.122-.256-.064-.511-.122c-.151-.034-.3-.067-.452-.1q-.262-.053-.523-.1c-.147-.027-.295-.052-.442-.076-.178-.028-.356-.054-.534-.078-.143-.019-.287-.039-.431-.055-.183-.021-.366-.04-.549-.058-.138-.013-.276-.026-.415-.037q-.281-.022-.563-.037c-.134-.008-.268-.016-.4-.022-.193-.008-.386-.013-.579-.017-.128,0-.255-.006-.383-.007h-.01a44.749,44.749,0,0,1,6.5,4.507Zm0,0" transform="translate(-395.378 -228.853)"/>
  <path id="Path_126" data-name="Path 126" d="M55.575,155.12q.245.061.49.117c.161.036.321.072.481.1s.322.063.482.092.327.058.49.084.315.047.473.069.333.045.5.065.308.033.462.048.338.032.506.045c.152.012.3.021.456.03.171.01.342.02.513.027.147.006.294.009.441.013.163,0,.326.008.489.009a44.725,44.725,0,0,1-6.5-4.507v3.607c.082.024.165.049.247.072q.236.065.473.125Zm0,0" transform="translate(-50.558 -139.463)"/>
  <path id="Path_127" data-name="Path 127" d="M61.268,272.12q-.208,0-.416-.007c-.19,0-.38-.012-.571-.02-.138-.006-.275-.012-.413-.02-.193-.011-.386-.026-.579-.041-.135-.011-.271-.021-.406-.034-.2-.019-.394-.042-.592-.065-.132-.016-.265-.03-.4-.048-.2-.027-.4-.059-.6-.091-.129-.021-.259-.039-.388-.062-.208-.037-.416-.079-.624-.121-.123-.025-.246-.047-.369-.075-.221-.049-.442-.1-.663-.16-.111-.028-.222-.052-.333-.082l-.05-.013v3.8a31.319,31.319,0,0,0,6.5-2.959l-.091,0Zm0,0" transform="translate(-50.565 -250.029)"/>
  <path id="Path_128" data-name="Path 128" d="M152.129,107.066a51.658,51.658,0,0,1-8.051.813,65.938,65.938,0,0,0,8.051,3.88Zm0,0" transform="translate(-132.791 -98.679)"/>
  <path id="Path_129" data-name="Path 129" d="M333.146,85.527c-.76-.147-1.52-.252-2.279-.324A73.8,73.8,0,0,0,320,92.284v.777l.575-.093c3.988-2.928,8.236-5.8,12.571-7.442Zm0,0" transform="translate(-294.932 -78.529)"/>
  <path id="Path_130" data-name="Path 130" d="M94.878,119.335v-.9a61.829,61.829,0,0,1-10.972-5.55q-.97-.09-1.945-.256a52.076,52.076,0,0,0,12.149,6.832l.769-.126Zm0,0" transform="translate(-75.539 -103.806)"/>
  <path id="Path_131" data-name="Path 131" d="M332.925,264.138a51.976,51.976,0,0,0-12.155-6.834l-.77.126v.9a61.855,61.855,0,0,1,10.97,5.549Q331.944,263.97,332.925,264.138Zm0,0" transform="translate(-294.932 -237.148)"/>
  <path id="Path_132" data-name="Path 132" d="M320,294.869a51.5,51.5,0,0,1,8.044-.817A65.925,65.925,0,0,0,320,290.176Zm0,0" transform="translate(-294.932 -267.444)"/>
  <path id="Path_133" data-name="Path 133" d="M19.717,105.141v-33.8a3.435,3.435,0,0,1-1.432.013v33.792a.687.687,0,0,0,.206.5.7.7,0,0,0,.51.219.717.717,0,0,0,.716-.716Zm0,0" transform="translate(-16.852 -65.748)"/>
  <path id="Path_134" data-name="Path 134" d="M2.119,4.239A2.119,2.119,0,1,0,0,2.121,2.119,2.119,0,0,0,2.119,4.239Zm0,0" transform="translate(0 -0.002)"/>
  <path id="Path_135" data-name="Path 135" d="M66.125,278.317l-.416.044c-.182.019-.364.038-.547.055-.139.013-.278.024-.416.036-.162.014-.324.028-.487.039a35.887,35.887,0,0,1-9.4,4.549v1.406A42.8,42.8,0,0,0,66.272,278.3l-.147.016Zm0,0" transform="translate(-50.559 -256.499)"/>
  <path id="Path_136" data-name="Path 136" d="M55.6,109.806q.27.067.54.127c.154.034.308.068.461.1.185.037.37.071.555.1.149.026.3.052.447.075.191.029.381.055.571.08.144.019.288.037.432.053.2.021.39.04.585.057.14.012.279.024.419.035.2.014.4.025.6.034.133.006.267.014.4.018.207.007.413.01.62.013.128,0,.255,0,.383,0,.212,0,.424,0,.636-.008.121,0,.242,0,.363-.007.22-.007.439-.017.658-.028.113-.006.226-.01.339-.017.229-.013.457-.03.685-.048l.309-.023c.237-.02.475-.043.711-.067l.28-.027c.254-.027.506-.057.759-.087l.224-.026c.27-.034.538-.07.806-.107l.178-.024q.442-.062.881-.13l.095-.014q.484-.075.965-.154h.009q.489-.08.975-.164a.758.758,0,0,1,.121-.01.737.737,0,0,1,.127.022.758.758,0,0,1,.083.014.7.7,0,0,1,.507.68v7.744l1.307-.231,1.558-.275v-7.992a.716.716,0,0,1,.6-.706q.487-.083.978-.164l.321-.051c.222-.036.443-.072.666-.106l.408-.061.582-.086.456-.062c.182-.024.364-.049.546-.072.159-.02.318-.038.477-.057.175-.021.351-.041.526-.06s.331-.033.5-.049.344-.033.516-.048.336-.027.5-.039.344-.025.516-.035.339-.018.509-.026.343-.015.514-.021.343-.009.515-.013.343,0,.514-.005.344,0,.517,0,.345.007.517.012.345.012.517.02.348.02.522.031.343.024.515.039.354.034.531.053.339.036.509.057.362.05.543.077c.166.025.332.049.5.077.188.032.376.069.565.106.159.031.319.061.479.1.2.043.4.093.6.142.149.036.3.07.446.11l.075.018v-2.8c-.089-.026-.179-.053-.268-.078q-.245-.067-.489-.129t-.513-.121c-.166-.037-.332-.073-.5-.106s-.337-.065-.5-.094-.337-.058-.5-.084-.333-.048-.5-.07-.34-.044-.51-.063-.33-.033-.5-.048-.341-.031-.511-.043-.327-.02-.49-.028-.345-.018-.517-.024-.321-.008-.482-.01-.348-.006-.521-.006-.319,0-.478.006-.348.005-.522.011-.319.013-.478.021-.346.015-.519.025-.319.022-.479.034-.343.024-.514.038-.321.03-.481.045-.339.032-.508.05-.315.036-.473.054-.343.039-.514.06-.315.042-.472.063-.336.044-.5.068l-.521.077-.449.067-.6.1-.362.058q-.48.079-.957.161a.726.726,0,0,1-.583-.159.715.715,0,0,1-.255-.547V97.481l-1.307.231-1.558.275v7.992a.717.717,0,0,1-.6.706q-.507.087-1.019.171l-.37.059-.678.107-.429.064q-.314.046-.63.09l-.45.061q-.316.042-.633.08c-.147.018-.293.036-.441.052-.228.026-.457.049-.686.072-.13.013-.259.027-.39.039q-.489.044-.98.077l-.1.008q-.537.035-1.077.054c-.115,0-.231.006-.347.009-.248.006-.5.012-.746.013l-.147,0c-.12,0-.241,0-.361-.006-.151,0-.3,0-.45-.007-.177,0-.355-.013-.532-.021-.151-.006-.3-.012-.452-.021-.179-.011-.359-.026-.538-.04-.149-.012-.3-.022-.448-.037-.184-.018-.369-.041-.553-.062-.145-.017-.289-.032-.435-.052-.2-.027-.394-.06-.591-.091-.132-.021-.265-.039-.4-.063-.243-.043-.485-.093-.728-.144-.088-.018-.176-.033-.263-.053q-.493-.11-.987-.243l-.019,0v2.8c.091.026.182.054.273.079Q55.366,109.745,55.6,109.806Zm0,0" transform="translate(-50.558 -89.844)"/>
  <path id="Path_137" data-name="Path 137" d="M375.882,255.841a44.26,44.26,0,0,0-9.327-6.3l-.041,0c-.229.017-.457.037-.685.058l-.269.024c-.242.023-.484.05-.726.077l-.223.024-.3.038a48.877,48.877,0,0,1,11.57,7.087Zm0,0" transform="translate(-335.772 -229.991)"/>
  <path id="Path_138" data-name="Path 138" d="M78.883,279.168c.766.149,1.532.252,2.3.323a73.8,73.8,0,0,0,10.862-7.079v-.777l-.576.093c-4,2.937-8.254,5.8-12.583,7.439Zm0,0" transform="translate(-72.703 -250.357)"/>
  <path id="Path_139" data-name="Path 139" d="M152.057,304.316A84.539,84.539,0,0,1,144,309.728a51.115,51.115,0,0,0,8.057-.83Zm0,0" transform="translate(-132.719 -280.477)"/>
  <path id="Path_140" data-name="Path 140" d="M366.626,106.936l.18-.018q.715-.075,1.435-.129a35.885,35.885,0,0,1,9.4-4.55v-.915a1.056,1.056,0,0,0-.118-.452,43.093,43.093,0,0,0-11.3,6.111Zm0,0" transform="translate(-337.537 -92.969)"/>
  <path id="Path_141" data-name="Path 141" d="M430.575,140.37q.7.042,1.406.122l.263.028q.73.09,1.462.226c.1.019.206.04.308.06.5.1,1,.21,1.5.345l.035.008v-3.8a31.341,31.341,0,0,0-6.5,2.961c.46,0,.92.015,1.383.04Zm0,0" transform="translate(-395.44 -126.599)"/>
</svg>
