<svg xmlns="http://www.w3.org/2000/svg" width="30" height="30" viewBox="0 0 30 30">
  <g id="Group_16" data-name="Group 16" transform="translate(-55 -4)">
    <g id="Ellipse_25" data-name="Ellipse 25" transform="translate(55 4)" fill="none" stroke="#000" stroke-width="1">
      <circle cx="15" cy="15" r="15" stroke="none"/>
      <circle cx="15" cy="15" r="14.5" fill="none"/>
    </g>
    <path id="Icon_awesome-user-astronaut" data-name="Icon awesome-user-astronaut" d="M2.342,8.2h.494a5.847,5.847,0,0,0,10.721,0h.494a.587.587,0,0,0,.585-.585V4.1a.587.587,0,0,0-.585-.585h-.494a5.847,5.847,0,0,0-10.721,0H2.342a.587.587,0,0,0-.585.585V7.611A.587.587,0,0,0,2.342,8.2Zm1.464-3.22A1.63,1.63,0,0,1,5.562,3.513h5.269a1.63,1.63,0,0,1,1.756,1.464v.878A3.514,3.514,0,0,1,9.074,9.367H7.318A3.514,3.514,0,0,1,3.805,5.854ZM6.44,7.611l.439-1.317L8.2,5.854,6.879,5.415,6.44,4.1,6,5.415l-1.317.439L6,6.294Zm5.547,4.149a6.977,6.977,0,0,1-7.582,0A4.9,4.9,0,0,0,0,16.627v.351a1.757,1.757,0,0,0,1.756,1.756H4.684V16.393a1.17,1.17,0,0,1,1.171-1.171h4.684a1.17,1.17,0,0,1,1.171,1.171v2.342h2.927a1.757,1.757,0,0,0,1.756-1.756v-.351A4.9,4.9,0,0,0,11.987,11.76ZM9.953,16.393a.585.585,0,1,0,.585.585A.587.587,0,0,0,9.953,16.393Zm-3.513,0a.587.587,0,0,0-.585.585v1.756H7.025V16.978A.587.587,0,0,0,6.44,16.393Z" transform="translate(62 10)"/>
  </g>
</svg>
