<svg xmlns="http://www.w3.org/2000/svg" width="28.864" height="34.26" viewBox="0 0 28.864 34.26">
  <g id="function-mathematical-symbol" transform="translate(-11.224)">
    <g id="Gruppe_42" data-name="Gruppe 42" transform="translate(11.224)">
      <path id="Pfad_109" data-name="Pfad 109" d="M16.788,34.26c2.8,0,4.286-2.5,4.723-3.977q.01-.035.019-.071c1.018-4.218,2.641-10.9,3.842-15.765h4.3a1.464,1.464,0,0,0,0-2.928H26.1c.385-1.532.666-2.623.777-3L27,8.106c.454-1.549,1.517-5.177,3.16-5.177,1.524,0,1.751,2.347,1.762,2.461a1.464,1.464,0,0,0,2.919-.231C34.7,3.374,33.548,0,30.16,0c-3.837,0-5.278,4.918-5.97,7.282l-.118.4c-.141.468-.51,1.909-.991,3.837H17.959a1.464,1.464,0,0,0,0,2.928h4.4c-1.5,6.1-3.446,14.139-3.66,15.025-.08.232-.68,1.861-1.908,1.861-1.875,0-2.687-2.632-2.693-2.652a1.464,1.464,0,1,0-2.813.815C11.794,31.265,13.53,34.26,16.788,34.26Z" transform="translate(-11.224)"/>
      <path id="Pfad_110" data-name="Pfad 110" d="M94.287,87.234a1.537,1.537,0,0,0,1.588-1.588,1.988,1.988,0,0,0-.567-1.316l-3.04-3.494,2.95-3.449a1.836,1.836,0,0,0,.476-1.18,1.524,1.524,0,0,0-1.611-1.5,1.988,1.988,0,0,0-1.5.886l-2.291,2.994-2.246-2.994a1.971,1.971,0,0,0-1.611-.885A1.537,1.537,0,0,0,84.849,76.3a1.989,1.989,0,0,0,.567,1.315l2.836,3.268-3.109,3.675a1.724,1.724,0,0,0-.476,1.18,1.524,1.524,0,0,0,1.61,1.5,1.987,1.987,0,0,0,1.5-.885l2.45-3.221,2.45,3.221A1.972,1.972,0,0,0,94.287,87.234Z" transform="translate(-67.011 -56.749)"/>
    </g>
  </g>
</svg>
