<svg id="XMLID_1043_" xmlns="http://www.w3.org/2000/svg" width="38.072" height="39.746" viewBox="0 0 38.072 39.746">
  <path id="XMLID_1087_" d="M374.333,80.116a3.416,3.416,0,0,0,6.364,1.725h0a3.406,3.406,0,0,0,.4-2.39h0a3.417,3.417,0,0,0-6.768.665Z" transform="translate(-345.898 -70.701)"/>
  <path id="XMLID_1090_" d="M224.739,208.644A3.558,3.558,0,1,0,228.3,212.2,3.562,3.562,0,0,0,224.739,208.644Z" transform="translate(-204.722 -192.329)"/>
  <path id="XMLID_1102_" d="M71.413,25.05a14.19,14.19,0,0,0-2.8-4.084q-.508-.547-1.08-1.093.571-.546,1.08-1.093a14.189,14.189,0,0,0,2.8-4.084,4.571,4.571,0,0,0,.063-3.973c-.043-.083-.092-.164-.144-.244A5.769,5.769,0,0,1,69.156,14a15.093,15.093,0,0,1-3.387,4.314A43.122,43.122,0,0,0,61.49,15.22q-.1-1.074-.235-2.107a36.959,36.959,0,0,0-1.1-5.356q-.227-.779-.484-1.5a14.191,14.191,0,0,0-2.334-4.37,4.188,4.188,0,0,0-7,0A14.19,14.19,0,0,0,48,6.255c-.3.84-.569,1.743-.806,2.7-.956-.229-1.881-.406-2.765-.526a14.189,14.189,0,0,0-4.954.06,4.571,4.571,0,0,0-3.284,2.237,4.571,4.571,0,0,0,.063,3.973,14.19,14.19,0,0,0,2.8,4.084q.483.52,1.024,1.04A20.133,20.133,0,0,0,37.5,22.728a5.722,5.722,0,0,1,2.437.667,20.36,20.36,0,0,1,1.908-2.009,43,43,0,0,0,4.335,3.139c.123,1.383.3,2.72.531,3.99a23,23,0,0,1-3.75.613,5.722,5.722,0,0,1-.828,2.386,23.025,23.025,0,0,0,5.069-.7c.236.947.5,1.843.8,2.678a14.191,14.191,0,0,0,2.334,4.37,4.571,4.571,0,0,0,3.5,1.885c.125,0,.247-.007.368-.017a5.77,5.77,0,0,1-2.221-3.567,16.613,16.613,0,0,1-2.523-5.974A45.626,45.626,0,0,0,53.84,28.56q1.223.521,2.426.958a37.05,37.05,0,0,0,5.486,1.556q.759.148,1.485.247a18.871,18.871,0,0,0,2.53.185,11,11,0,0,0,2.424-.244,4.571,4.571,0,0,0,3.284-2.237,4.57,4.57,0,0,0-.063-3.973Zm-7.433-5.177q-1.057.855-2.312,1.727.025-.852.026-1.727t-.028-1.728Q62.922,19.014,63.979,19.873ZM53.836,26q-1.24-.561-2.54-1.233-1.523-.79-2.872-1.605-.1-1.572-.1-3.289c0-1.147.036-2.246.1-3.3q1.378-.822,2.871-1.6c.839-.435,1.687-.847,2.535-1.233q1.241.561,2.542,1.233,1.523.79,2.872,1.605.1,1.572.1,3.288,0,1.691-.1,3.286-1.352.814-2.877,1.608-1.3.674-2.536,1.233ZM48.7,13.714q.122-.956.277-1.841.941.3,1.941.668-.35.175-.7.355-.774.4-1.521.817Zm8.758-.817q-.363-.188-.726-.369c.664-.256,1.319-.492,1.96-.707q.161.91.287,1.9Q58.226,13.3,57.453,12.9ZM53.834,2.346c1.435,0,3.222,2.59,4.365,7.169-1.414.464-2.89,1.026-4.376,1.669a45.486,45.486,0,0,0-4.369-1.611C50.6,4.957,52.394,2.346,53.834,2.346ZM38.276,11.8c.4-.764,1.677-1.211,3.63-1.211a21.041,21.041,0,0,1,4.8.651c-.228,1.261-.4,2.586-.527,3.957a44,44,0,0,0-4.323,3.072C38.879,15.441,37.666,12.979,38.276,11.8Zm5.374,8.039q1.1-.872,2.354-1.725-.028.872-.029,1.757,0,.87.028,1.728c-.853-.59-1.637-1.179-2.353-1.76Zm5.324,8.04q-.156-.89-.279-1.853.748.419,1.521.821.352.183.705.359Q49.917,27.584,48.974,27.882Zm8.479-1.033q.78-.4,1.534-.828-.119.954-.276,1.856-.948-.3-1.957-.673c.232-.117.465-.234.7-.355Zm11.94,1.095c-.662,1.277-3.8,1.67-8.412.565.227-1.261.4-2.6.521-3.99a43.087,43.087,0,0,0,4.267-3.085C68.779,24.282,70.006,26.762,69.393,27.944Z" transform="translate(-33.818 0)"/>
  <path id="XMLID_1117_" d="M17.537,323.982A3.417,3.417,0,1,0,14.12,327.4,3.421,3.421,0,0,0,17.537,323.982Z" transform="translate(-10.703 -295.498)"/>
  <path id="XMLID_1121_" d="M278.569,408.745a3.408,3.408,0,0,0-1.093-2.5h0a3.4,3.4,0,0,0-2.171-.911c-.051,0-.1,0-.153,0a3.417,3.417,0,1,0,3.417,3.417Z" transform="translate(-251.324 -373.633)"/>
</svg>
