<svg id="politics" xmlns="http://www.w3.org/2000/svg" width="43.909" height="43.909" viewBox="0 0 43.909 43.909">
  <path id="Path_111" data-name="Path 111" d="M41.336,31.045h-7.8v-7.8h2.573V15.523H33.461a11.642,11.642,0,0,0-10.22-10.3V2.573h5.146V0H20.668V5.218a11.642,11.642,0,0,0-10.22,10.3H7.8v7.718h2.573v7.8h-7.8v5.146H0v7.718H43.909V36.191H41.336ZM21.955,7.718a9.047,9.047,0,0,1,8.914,7.8H13.04A9.047,9.047,0,0,1,21.955,7.718ZM10.377,18.1H33.532v2.573H10.377Zm20.582,5.146v7.8H28.387v-7.8Zm-5.146,0v7.8H23.241v-7.8Zm-5.146,0v7.8H18.1v-7.8Zm-5.146,0v7.8H12.95v-7.8Zm25.814,18.1H2.573V38.764H12.95V36.191h-7.8V33.618H38.764v2.573h-7.8v2.573H41.336Z" transform="translate(0 0)"/>
</svg>
