<svg id="religion" xmlns="http://www.w3.org/2000/svg" width="40.041" height="40.047" viewBox="0 0 40.041 40.047">
  <g id="Group_44" data-name="Group 44" transform="translate(15.837 27.804)">
    <g id="Group_43" data-name="Group 43">
      <path id="Path_112" data-name="Path 112" d="M210.765,365.633H203.7v-9.558a.6.6,0,1,0-1.192,0V366.23a.6.6,0,0,0,.6.6h7.661a.6.6,0,1,0,0-1.192Z" transform="translate(-202.508 -355.479)"/>
    </g>
  </g>
  <g id="Group_46" data-name="Group 46" transform="translate(7.413 7.189)">
    <g id="Group_45" data-name="Group 45">
      <path id="Path_113" data-name="Path 113" d="M119.92,98.523h-7.827V92.509a.6.6,0,0,0-.6-.6h-7.661a.6.6,0,0,0-.6.6v6.014H95.412a.6.6,0,0,0-.6.6v7.661a.6.6,0,0,0,.6.6h7.827v3.76a.6.6,0,0,0,1.192,0v-4.356a.6.6,0,0,0-.6-.6H96.008V99.716h7.827a.6.6,0,0,0,.6-.6V93.105H110.9V99.12a.6.6,0,0,0,.6.6h7.827v2.892a.6.6,0,1,0,1.192,0V99.12A.6.6,0,0,0,119.92,98.523Z" transform="translate(-94.816 -91.913)"/>
    </g>
  </g>
  <g id="Group_48" data-name="Group 48" transform="translate(9.988 9.764)">
    <g id="Group_47" data-name="Group 47">
      <path id="Path_114" data-name="Path 114" d="M147.688,131.439h-7.827v-6.014a.6.6,0,0,0-.6-.6h-2.512a.6.6,0,0,0-.6.6v6.014h-7.827a.6.6,0,0,0-.6.6v2.512a.6.6,0,0,0,.6.6h7.827v15.9a.6.6,0,0,0,.6.6h1.8a.6.6,0,1,0,0-1.192h-1.2v-15.9a.6.6,0,0,0-.6-.6h-7.827v-1.319h7.827a.6.6,0,0,0,.6-.6v-6.014h1.319v6.014a.6.6,0,0,0,.6.6h7.827v.556a.6.6,0,1,0,1.192,0v-1.152A.6.6,0,0,0,147.688,131.439Z" transform="translate(-127.733 -124.829)"/>
    </g>
  </g>
  <g id="Group_50" data-name="Group 50" transform="translate(20.923 18.886)">
    <g id="Group_49" data-name="Group 49">
      <path id="Path_115" data-name="Path 115" d="M272.716,241.455h-4.583a.6.6,0,0,0-.6.6v3.529a.6.6,0,0,0,1.193,0v-2.933h3.987a.6.6,0,1,0,0-1.192Z" transform="translate(-267.537 -241.455)"/>
    </g>
  </g>
  <g id="Group_52" data-name="Group 52" transform="translate(20.331 19.457)">
    <g id="Group_51" data-name="Group 51">
      <path id="Path_116" data-name="Path 116" d="M276.083,266.172a7.271,7.271,0,0,1-.763.041,7.12,7.12,0,0,1-5.021-2.055.6.6,0,1,0-.836.85,8.3,8.3,0,0,0,4.628,2.308,9.1,9.1,0,1,1,0-16.529,8.357,8.357,0,0,0-5.937,12.562.6.6,0,1,0,1.022-.614,7.163,7.163,0,0,1,6.143-10.845,7.278,7.278,0,0,1,.763.041.6.6,0,0,0,.425-1.067,10.2,10.2,0,0,0-6.241-2.107,10.3,10.3,0,1,0,0,20.59,10.2,10.2,0,0,0,6.24-2.107.6.6,0,0,0-.424-1.067Z" transform="translate(-259.972 -248.756)"/>
    </g>
  </g>
  <g id="Group_54" data-name="Group 54" transform="translate(30.91 25.3)">
    <g id="Group_53" data-name="Group 53">
      <path id="Path_117" data-name="Path 117" d="M404.327,326.758a.6.6,0,0,0-.481-.406L401.413,326l-1.088-2.2a.6.6,0,0,0-1.069,0l-1.088,2.2-2.432.353a.6.6,0,0,0-.331,1.017l1.76,1.716-.415,2.423a.6.6,0,0,0,.865.628l2.176-1.144,2.176,1.144a.6.6,0,0,0,.865-.629l-.415-2.423,1.76-1.716A.6.6,0,0,0,404.327,326.758Zm-2.968,1.692a.6.6,0,0,0-.171.528l.264,1.541-1.384-.727a.6.6,0,0,0-.555,0l-1.384.727.264-1.541a.6.6,0,0,0-.171-.528l-1.12-1.091,1.547-.225a.6.6,0,0,0,.449-.326l.692-1.4.692,1.4a.6.6,0,0,0,.449.326l1.547.225Z" transform="translate(-395.225 -323.462)"/>
    </g>
  </g>
  <g id="Group_56" data-name="Group 56" transform="translate(0)">
    <g id="Group_55" data-name="Group 55">
      <path id="Path_118" data-name="Path 118" d="M12.639,8.438,14.73,4.815a.6.6,0,0,0-.516-.894H10.031L7.939.3A.6.6,0,0,0,6.906.3L4.815,3.921H.632a.6.6,0,0,0-.516.894L2.207,8.438.115,12.061a.6.6,0,0,0,.516.894H4.815L5.882,14.8a.6.6,0,1,0,1.033-.6l-.723-1.253h8.022a.6.6,0,0,0,.516-.894Zm.543-3.325L11.95,7.245,10.719,5.113ZM7.423,1.789,8.654,3.921H6.192ZM1.664,5.113H4.126L2.9,7.245Zm0,6.649L2.9,9.63l1.231,2.132Zm3.839,0L3.584,8.438,5.5,5.113H9.342l1.92,3.325L10.123,10.41a.6.6,0,1,0,1.033.6L11.95,9.63l1.231,2.132Z" transform="translate(-0.036 0)"/>
    </g>
  </g>
</svg>
