<svg id="tank" xmlns="http://www.w3.org/2000/svg" width="45.852" height="25.818" viewBox="0 0 45.852 25.818">
  <g id="Group_58" data-name="Group 58" transform="translate(9.215 0)">
    <g id="Group_57" data-name="Group 57">
      <path id="Path_119" data-name="Path 119" d="M108.94,111.853h-2.6a3.446,3.446,0,0,0-3.442,3.442v.8h9.482v-.8A3.446,3.446,0,0,0,108.94,111.853Z" transform="translate(-102.9 -111.853)"/>
    </g>
  </g>
  <g id="Group_60" data-name="Group 60" transform="translate(25.811 5.799)">
    <g id="Group_59" data-name="Group 59">
      <path id="Path_120" data-name="Path 120" d="M306.9,177.743h-.857a1.351,1.351,0,0,0-1.151.644H295.1v-.43a1.353,1.353,0,0,0-1.353-1.353h-5.539a7.311,7.311,0,0,1,2.811,5.761v.51h2.728a1.353,1.353,0,0,0,1.353-1.353v-.43h9.789a1.351,1.351,0,0,0,1.151.644h.857a1.353,1.353,0,0,0,1.353-1.353V179.1A1.353,1.353,0,0,0,306.9,177.743Z" transform="translate(-288.212 -176.604)"/>
    </g>
  </g>
  <g id="Group_62" data-name="Group 62" transform="translate(4.782 6.042)">
    <g id="Group_61" data-name="Group 61">
      <path id="Path_121" data-name="Path 121" d="M75.429,184.837a5.524,5.524,0,0,0-5.518-5.518H55.452l-2.059,8.994H75.43v-3.477Zm-4.684-.578H68.338a.9.9,0,1,1,0-1.8h2.408a.9.9,0,1,1,0,1.8Z" transform="translate(-53.393 -179.319)"/>
    </g>
  </g>
  <g id="Group_64" data-name="Group 64" transform="translate(0 16.84)">
    <g id="Group_63" data-name="Group 63">
      <path id="Path_122" data-name="Path 122" d="M37.184,299.9H4.489a4.489,4.489,0,1,0,0,8.978H37.184a4.489,4.489,0,1,0,0-8.978ZM5.557,306.5a2.116,2.116,0,1,1,2.116-2.116A2.116,2.116,0,0,1,5.557,306.5Zm7.64,0a2.116,2.116,0,1,1,2.116-2.116A2.116,2.116,0,0,1,13.2,306.5Zm7.639,0a2.116,2.116,0,1,1,2.116-2.116A2.116,2.116,0,0,1,20.836,306.5Zm7.64,0a2.116,2.116,0,1,1,2.116-2.116A2.116,2.116,0,0,1,28.476,306.5Zm7.639,0a2.116,2.116,0,1,1,2.116-2.116A2.116,2.116,0,0,1,36.115,306.5Z" transform="translate(0 -299.898)"/>
    </g>
  </g>
</svg>
