<svg xmlns="http://www.w3.org/2000/svg" width="39.209" height="39.209" viewBox="0 0 39.209 39.209">
  <g id="Icon_ionic-ios-add-circle-outline" data-name="Icon ionic-ios-add-circle-outline" transform="translate(-3.375 -3.375)">
    <path id="Pfad_150" data-name="Pfad 150" d="M29.079,19.042H22.058V12.02a1.508,1.508,0,1,0-3.016,0v7.022H12.02a1.444,1.444,0,0,0-1.508,1.508,1.46,1.46,0,0,0,1.508,1.508h7.022v7.022a1.461,1.461,0,0,0,1.508,1.508,1.5,1.5,0,0,0,1.508-1.508V22.058h7.022a1.508,1.508,0,0,0,0-3.016Z" transform="translate(2.43 2.43)"/>
    <path id="Pfad_151" data-name="Pfad 151" d="M22.979,6.014a16.959,16.959,0,1,1-12,4.967,16.853,16.853,0,0,1,12-4.967m0-2.639a19.6,19.6,0,1,0,19.6,19.6,19.6,19.6,0,0,0-19.6-19.6Z"/>
  </g>
</svg>
