<svg xmlns="http://www.w3.org/2000/svg" width="22.892" height="17.979" viewBox="0 0 22.892 17.979">
  <path id="Icon_ionic-ios-undo" data-name="Icon ionic-ios-undo" d="M25.132,21.711a10.855,10.855,0,0,0-2.9-8.107c-2.064-2.079-4.695-3.152-8.347-3.346a.207.207,0,0,1-.194-.2V5.829a.206.206,0,0,0-.317-.174L2.342,12.919a.205.205,0,0,0,0,.342l11.03,7.264a.2.2,0,0,0,.317-.174V16.184a.2.2,0,0,1,.215-.2,12.013,12.013,0,0,1,4.96,1.185,12.58,12.58,0,0,1,4.828,4.266,10.939,10.939,0,0,1,1.093,2.028.227.227,0,0,0,.209.143h.148C25.137,23,25.132,22.238,25.132,21.711Z" transform="translate(-2.25 -5.622)"/>
</svg>
