<svg xmlns="http://www.w3.org/2000/svg" width="45" height="83" viewBox="0 0 45 83">
  <g id="Physik" transform="translate(-378)">
    <g id="Rectangle_25" data-name="Rectangle 25" transform="translate(378)" fill="#f5f5f5" stroke="#707070" stroke-width="1">
      <rect width="45" height="83" rx="8" stroke="none"/>
      <rect x="0.5" y="0.5" width="44" height="82" rx="7.5" fill="none"/>
    </g>
    <text id="PHYSIK-2" data-name="PHYSIK" transform="translate(383 32)" font-size="11" font-family="SegoeUI, Segoe UI"><tspan x="0" y="0">PHYSIK</tspan></text>
    <text id="Hr._Kolikaro" data-name="Hr. 
Kolikaro" transform="translate(387 53)" font-size="9" font-family="SegoeUI, Segoe UI"><tspan x="0" y="0">Hr. </tspan><tspan x="0" y="8">Kolikaro</tspan></text>
    <text id="_301" data-name="301" transform="translate(403 75)" font-size="11" font-family="SegoeUI, Segoe UI"><tspan x="0" y="0">301</tspan></text>
    <g id="XMLID_1043_" transform="translate(391 3)">
      <path id="XMLID_1087_" d="M374.333,78.329a1.629,1.629,0,0,0,3.035.823h0a1.624,1.624,0,0,0,.193-1.14h0a1.63,1.63,0,0,0-3.228.317Z" transform="translate(-360.772 -73.839)"/>
      <path id="XMLID_1090_" d="M222.878,208.644a1.7,1.7,0,1,0,1.7,1.7A1.7,1.7,0,0,0,222.878,208.644Z" transform="translate(-213.331 -200.863)"/>
      <path id="XMLID_1102_" d="M52.774,11.947A6.768,6.768,0,0,0,51.436,10q-.242-.261-.515-.522.272-.261.515-.522a6.767,6.767,0,0,0,1.338-1.948,2.18,2.18,0,0,0,.03-1.9c-.021-.04-.044-.078-.068-.116A2.751,2.751,0,0,1,51.7,6.676a7.2,7.2,0,0,1-1.616,2.058,20.566,20.566,0,0,0-2.041-1.475Q48,6.747,47.929,6.254A17.627,17.627,0,0,0,47.4,3.7q-.108-.371-.231-.716A6.768,6.768,0,0,0,46.058.9a2,2,0,0,0-3.337,0,6.767,6.767,0,0,0-1.113,2.084c-.143.4-.271.831-.384,1.286-.456-.109-.9-.194-1.319-.251a6.767,6.767,0,0,0-2.363.028,2.18,2.18,0,0,0-1.566,1.067,2.18,2.18,0,0,0,.03,1.9,6.767,6.767,0,0,0,1.338,1.948q.23.248.489.5A9.6,9.6,0,0,0,36.6,10.84a2.729,2.729,0,0,1,1.162.318,9.71,9.71,0,0,1,.91-.958,20.507,20.507,0,0,0,2.068,1.5c.059.659.144,1.3.253,1.9a10.972,10.972,0,0,1-1.789.292,2.729,2.729,0,0,1-.395,1.138,10.981,10.981,0,0,0,2.418-.335c.112.452.24.879.382,1.277a6.768,6.768,0,0,0,1.113,2.084,2.18,2.18,0,0,0,1.668.9c.06,0,.118,0,.175-.008a2.752,2.752,0,0,1-1.059-1.7A7.923,7.923,0,0,1,42.3,14.4a21.761,21.761,0,0,0,2.09-.776q.583.248,1.157.457a17.67,17.67,0,0,0,2.616.742q.362.071.708.118a9,9,0,0,0,1.207.088,5.245,5.245,0,0,0,1.156-.116A2.18,2.18,0,0,0,52.8,13.842a2.18,2.18,0,0,0-.03-1.895ZM49.228,9.478q-.5.408-1.1.823.012-.406.012-.823t-.013-.824Q48.724,9.068,49.228,9.478ZM44.391,12.4q-.592-.267-1.212-.588-.726-.377-1.37-.766-.048-.75-.049-1.568c0-.547.017-1.071.049-1.572q.657-.392,1.369-.762c.4-.207.8-.4,1.209-.588q.592.268,1.212.588.726.377,1.37.766.048.75.049,1.568t-.047,1.567q-.645.388-1.372.767-.619.321-1.21.588ZM41.939,6.541q.058-.456.132-.878.449.141.926.319-.167.084-.333.169-.369.191-.725.39Zm4.177-.39q-.173-.09-.346-.176c.317-.122.629-.235.935-.337q.077.434.137.9Q46.484,6.342,46.116,6.151ZM44.39,1.119c.684,0,1.537,1.235,2.082,3.419-.674.221-1.378.489-2.087.8A21.694,21.694,0,0,0,42.3,4.566C42.846,2.364,43.7,1.119,44.39,1.119Zm-7.42,4.51c.189-.364.8-.578,1.731-.578a10.035,10.035,0,0,1,2.29.311c-.109.6-.193,1.233-.251,1.887a20.984,20.984,0,0,0-2.062,1.465C37.257,7.364,36.679,6.19,36.97,5.629Zm2.563,3.834q.524-.416,1.123-.823-.013.416-.014.838t.013.824c-.407-.281-.781-.562-1.122-.839ZM42.072,13.3q-.074-.425-.133-.884.357.2.725.391.168.087.336.171Q42.522,13.155,42.072,13.3Zm4.044-.492q.372-.193.732-.395-.057.455-.132.885-.452-.142-.933-.321c.111-.056.222-.112.333-.169Zm5.694.522c-.316.609-1.812.8-4.012.269.108-.6.191-1.238.248-1.9a20.549,20.549,0,0,0,2.035-1.471C51.517,11.581,52.1,12.763,51.81,13.327Z" transform="translate(-34.844 0)"/>
      <path id="XMLID_1117_" d="M13.962,322.195a1.63,1.63,0,1,0-1.63,1.63A1.631,1.631,0,0,0,13.962,322.195Z" transform="translate(-10.703 -308.61)"/>
      <path id="XMLID_1121_" d="M275,406.958a1.625,1.625,0,0,0-.522-1.193h0a1.623,1.623,0,0,0-1.035-.434l-.073,0a1.63,1.63,0,1,0,1.63,1.63Z" transform="translate(-262.001 -390.212)"/>
    </g>
  </g>
</svg>
