<svg id="Mathe" xmlns="http://www.w3.org/2000/svg" width="87" height="118" viewBox="0 0 87 118">
  <g id="Rectangle_21" data-name="Rectangle 21" fill="#f5f5f5" stroke="#707070" stroke-width="1">
    <rect width="87" height="118" rx="8" stroke="none"/>
    <rect x="0.5" y="0.5" width="86" height="117" rx="7.5" fill="none"/>
  </g>
  <text id="MATHE-2" data-name="MATHE" transform="translate(37 23)" font-size="12" font-family="SegoeUI, Segoe UI"><tspan x="0" y="0">MATHE</tspan></text>
  <text id="Hr._Blatt" data-name="Hr. Blatt" transform="translate(37 53)" font-size="12" font-family="SegoeUI, Segoe UI"><tspan x="0" y="0">Hr. Blatt</tspan></text>
  <text id="_301" data-name="301" transform="translate(61 72)" font-size="12" font-family="SegoeUI, Segoe UI"><tspan x="0" y="0">301</tspan></text>
  <g id="function-mathematical-symbol" transform="translate(-7.224 6)">
    <g id="Group_42" data-name="Group 42" transform="translate(11.224)">
      <path id="Path_109" data-name="Path 109" d="M14.782,21.912A3.356,3.356,0,0,0,17.8,19.368q.007-.022.012-.046c.651-2.7,1.689-6.973,2.457-10.083h2.75a.936.936,0,0,0,0-1.873H20.738c.246-.98.426-1.678.5-1.916l.079-.267c.29-.991.97-3.311,2.021-3.311.975,0,1.12,1.5,1.127,1.574A.936.936,0,0,0,26.329,3.3C26.241,2.158,25.5,0,23.335,0c-2.454,0-3.375,3.146-3.818,4.658l-.075.255c-.09.3-.326,1.221-.634,2.454H15.531a.936.936,0,0,0,0,1.873h2.812c-.961,3.9-2.2,9.043-2.341,9.609-.051.148-.435,1.19-1.22,1.19-1.2,0-1.719-1.683-1.723-1.7a.936.936,0,1,0-1.8.521C11.589,20,12.7,21.912,14.782,21.912Z" transform="translate(-11.224)"/>
      <path id="Path_110" data-name="Path 110" d="M90.82,82.72A.983.983,0,0,0,91.835,81.7a1.271,1.271,0,0,0-.363-.842l-1.944-2.235,1.887-2.206a1.174,1.174,0,0,0,.3-.755.975.975,0,0,0-1.031-.958,1.272,1.272,0,0,0-.958.566L88.266,77.19l-1.437-1.915a1.261,1.261,0,0,0-1.03-.566.983.983,0,0,0-1.016,1.016,1.272,1.272,0,0,0,.362.841l1.814,2.09-1.988,2.351a1.1,1.1,0,0,0-.3.755.975.975,0,0,0,1.03.958,1.271,1.271,0,0,0,.958-.566l1.567-2.06,1.567,2.06A1.262,1.262,0,0,0,90.82,82.72Z" transform="translate(-73.375 -63.222)"/>
    </g>
  </g>
  <text id="Notiz_1_2Do_1" data-name="Notiz 1
2Do 1" transform="translate(24 99)" fill="#585858" font-size="10" font-family="SegoeUI, Segoe UI"><tspan x="0" y="0">Notiz 1</tspan><tspan x="0" y="14">2Do 1</tspan></text>
  <g id="Group_13" data-name="Group 13" transform="translate(3 88)">
    <rect id="Rectangle_35" data-name="Rectangle 35" width="13" height="13" rx="5" transform="translate(0 1)"/>
    <text id="_" data-name="!" transform="translate(5 11)" fill="#fff" font-size="10" font-family="SegoeUI-Bold, Segoe UI" font-weight="700"><tspan x="0" y="0">!</tspan></text>
  </g>
</svg>
