<svg xmlns="http://www.w3.org/2000/svg" width="45" height="83" viewBox="0 0 45 83">
  <g id="Chemie" transform="translate(-427)">
    <g id="Rectangle_26" data-name="Rectangle 26" transform="translate(427)" fill="#f5f5f5" stroke="#707070" stroke-width="1">
      <rect width="45" height="83" rx="8" stroke="none"/>
      <rect x="0.5" y="0.5" width="44" height="82" rx="7.5" fill="none"/>
    </g>
    <text id="CHEMIE-2" data-name="CHEMIE" transform="translate(430 32)" font-size="11" font-family="SegoeUI, Segoe UI"><tspan x="0" y="0">CHEMIE</tspan></text>
    <text id="Fr._Stuber" data-name="Fr. 
Stuber" transform="translate(443 55)" font-size="9" font-family="SegoeUI, Segoe UI"><tspan x="0" y="0">Fr. </tspan><tspan x="0" y="8">Stuber</tspan></text>
    <text id="_301" data-name="301" transform="translate(451 77)" font-size="11" font-family="SegoeUI, Segoe UI"><tspan x="0" y="0">301</tspan></text>
    <g id="chemistry" transform="translate(439.256 -1.739)">
      <path id="Path_103" data-name="Path 103" d="M12.173,28.812V24.186a.761.761,0,0,0-.033-1.521H7.823a.761.761,0,0,0-.033,1.521v4.626a5.237,5.237,0,1,0,4.383,0Zm-4.55-5.384a.2.2,0,0,1,.2-.2h4.317a.2.2,0,1,1,0,.4H7.824A.2.2,0,0,1,7.623,23.427ZM9.981,38.245a4.676,4.676,0,0,1-1.8-8.991A.281.281,0,0,0,8.352,29V24.19h3.259V29a.281.281,0,0,0,.173.259,4.676,4.676,0,0,1-1.8,8.991Z" transform="translate(0 -15.049)"/>
      <path id="Path_104" data-name="Path 104" d="M14.971,89.365a12.365,12.365,0,0,0-3.955-.509.281.281,0,0,0-.266.281,4.274,4.274,0,1,0,8.547.05.281.281,0,0,0-.387-.264A6.3,6.3,0,0,1,14.971,89.365Zm3.735.236a3.712,3.712,0,0,1-7.385-.194,12.116,12.116,0,0,1,3.5.5A6.584,6.584,0,0,0,18.706,89.6Z" transform="translate(-5.042 -70.612)"/>
      <path id="Path_105" data-name="Path 105" d="M24.741,74.5a.762.762,0,1,0-.762-.762A.762.762,0,0,0,24.741,74.5Zm0-.963a.2.2,0,1,1-.2.2A.2.2,0,0,1,24.741,73.538Z" transform="translate(-16.148 -57.286)"/>
      <path id="Path_106" data-name="Path 106" d="M35.856,62.727a.762.762,0,1,0,.762-.762A.762.762,0,0,0,35.856,62.727Zm.963,0a.2.2,0,1,1-.2-.2A.2.2,0,0,1,36.819,62.727Z" transform="translate(-26.119 -48.042)"/>
      <path id="Path_107" data-name="Path 107" d="M32.59,42.408a.762.762,0,1,0-.762-.762A.762.762,0,0,0,32.59,42.408Zm0-.963a.2.2,0,1,1-.2.2A.2.2,0,0,1,32.59,41.445Z" transform="translate(-22.738 -30.344)"/>
      <path id="Path_108" data-name="Path 108" d="M68.7,9.116a1.245,1.245,0,0,0-1.243,1.225l-1.614.351a1.686,1.686,0,0,0-.692-.818l1.07-2.662A1.244,1.244,0,1,0,65.7,7l-1.07,2.661a1.684,1.684,0,0,0-1.532.428l-.963-.726a1.245,1.245,0,1,0-.338.449l.961.725a1.686,1.686,0,0,0-.078,1.389l-.658.386a1.232,1.232,0,1,0,.286.484l.656-.385a1.683,1.683,0,0,0,1.717.56l.668,1.528a1.241,1.241,0,1,0,.742-.249,1.255,1.255,0,0,0-.229.022l-.667-1.525a1.7,1.7,0,0,0,.771-1.424c0-.027,0-.054,0-.081l1.614-.351A1.243,1.243,0,1,0,68.7,9.116ZM66.412,5.3a.682.682,0,1,1-.682.682A.682.682,0,0,1,66.412,5.3Zm-5.293,8.546a.682.682,0,1,1,.682-.682.682.682,0,0,1-.682.682Zm5.654,1.645a.682.682,0,1,1-.682-.682A.682.682,0,0,1,66.773,15.493ZM61,9.542a.682.682,0,1,1,.682-.682A.682.682,0,0,1,61,9.542Zm3.723,2.824a1.128,1.128,0,0,1-.457.095,1.139,1.139,0,0,1-1.138-1.139,1.126,1.126,0,0,1,.229-.685,1.143,1.143,0,0,1,.908-.452,1.108,1.108,0,0,1,.426.083,1.138,1.138,0,0,1,.031,2.1ZM68.7,11.042a.683.683,0,0,1-.666-.538s0,0,0-.006a.692.692,0,0,1-.014-.137.682.682,0,1,1,.682.682Z" transform="translate(-46.18)"/>
    </g>
  </g>
</svg>
