<svg xmlns="http://www.w3.org/2000/svg" width="87" height="75" viewBox="0 0 87 75">
  <g id="Deutsch" transform="translate(-240)">
    <g id="Rectangle_23" data-name="Rectangle 23" transform="translate(240)" fill="#f5f5f5" stroke="#707070" stroke-width="1">
      <rect width="87" height="75" rx="8" stroke="none"/>
      <rect x="0.5" y="0.5" width="86" height="74" rx="7.5" fill="none"/>
    </g>
    <text id="DEUTSCH-2" data-name="DEUTSCH" transform="translate(270 23)" font-size="12" font-family="SegoeUI, Segoe UI"><tspan x="0" y="0">DEUTSCH</tspan></text>
    <text id="Dr._Seibert" data-name="Dr. Seibert" transform="translate(321 48)" font-size="12" font-family="SegoeUI, Segoe UI"><tspan x="-55.6" y="0">Dr. Seibert</tspan></text>
    <text id="_301" data-name="301" transform="translate(302 67)" font-size="12" font-family="SegoeUI, Segoe UI"><tspan x="0" y="0">301</tspan></text>
    <g id="poetry" transform="translate(241.37 6)">
      <path id="Path_142" data-name="Path 142" d="M21.087,10.524l4.337-5.74a3.691,3.691,0,0,0,.751-2.023A3.641,3.641,0,0,0,25.653.678,1.45,1.45,0,0,0,24.4,0h-.74a6.255,6.255,0,0,0-3.257.9A2.93,2.93,0,0,0,18.276,0H5.441A2.709,2.709,0,0,0,2.63,2.588a.451.451,0,0,0,.468.431H7.314v16.3a2.709,2.709,0,0,0,2.811,2.588H22.96a2.709,2.709,0,0,0,2.811-2.588.451.451,0,0,0-.468-.431H21.087V16.255a.47.47,0,0,0-.937,0v2.638H12.467a.451.451,0,0,0-.468.431,1.806,1.806,0,0,1-1.874,1.725,1.806,1.806,0,0,1-1.874-1.725V2.588A2.467,2.467,0,0,0,7.534.863H18.276a1.958,1.958,0,0,1,1.392.571q-1,.8-1.946,1.672H10.5a.451.451,0,0,0-.468.431.451.451,0,0,0,.468.431h6.32q-.847.838-1.632,1.725H10.5a.433.433,0,1,0,0,.863h3.956a5.742,5.742,0,0,0-.909,1.725H10.5a.433.433,0,1,0,0,.863h2.842a11.145,11.145,0,0,0-.093,2.21,31.079,31.079,0,0,0-3.576,8.3c-.148.558.761.764.91.205q.111-.418.234-.832a2.2,2.2,0,0,1,2.112-1.443.468.468,0,0,0,.441-.287,29.008,29.008,0,0,1,2.111-4.337l2-.274a5.359,5.359,0,0,0,2.666-1.15v.837a.47.47,0,0,0,.937,0V10.524ZM12.9,19.755H24.775a1.856,1.856,0,0,1-1.814,1.294H12.218A2.5,2.5,0,0,0,12.9,19.755Zm-9.27-17.6A1.856,1.856,0,0,1,5.441.863,1.856,1.856,0,0,1,7.255,2.157Zm8.968,14.581a3.332,3.332,0,0,0-1.114.311,30.342,30.342,0,0,1,1.713-3.776l1.136-.155A29.823,29.823,0,0,0,12.594,16.737Zm4.753-4.9-3.624.495a32.585,32.585,0,0,1,8.186-9.255c.472-.367-.132-1.026-.6-.659A33.887,33.887,0,0,0,14.2,9.9q.021-.25.054-.513a4.854,4.854,0,0,1,1.115-2.515A35.054,35.054,0,0,1,20.452,1.95,5.192,5.192,0,0,1,23.664.863h.74a.5.5,0,0,1,.428.233,2.812,2.812,0,0,1-.178,3.2l-2.1,2.779a4.278,4.278,0,0,1-2.829,1.613l-1.35.184a.43.43,0,1,0,.068.858c.023,0,1.419-.189,1.419-.189A5.466,5.466,0,0,0,20.87,9.3l-.691.915a4.277,4.277,0,0,1-2.832,1.617Zm3.74,2.481a.47.47,0,1,1-.468-.431A.452.452,0,0,1,21.087,14.314Z"/>
    </g>
  </g>
</svg>
